<mxfile host="Electron" agent="Mozilla/5.0 (Windows NT 10.0; Win64; x64) AppleWebKit/537.36 (KHTML, like Gecko) draw.io/26.0.4 Chrome/128.0.6613.186 Electron/32.2.5 Safari/537.36" version="26.0.4">
  <diagram name="Page-1" id="GHwjxM07oNjFnH8JTYw-">
    <mxGraphModel dx="1690" dy="621" grid="1" gridSize="10" guides="1" tooltips="1" connect="1" arrows="1" fold="1" page="0" pageScale="1" pageWidth="827" pageHeight="1169" math="0" shadow="0">
      <root>
        <mxCell id="0" />
        <mxCell id="1" parent="0" />
        <mxCell id="ulu9L9T5XsNM_D27yvi4-1" value="&lt;b&gt;&lt;u&gt;INSTAGRAM FACEBOOK OR TIKTOK SYSTEM DESIGN&lt;/u&gt;&lt;/b&gt;&lt;div&gt;&lt;br&gt;&lt;/div&gt;" style="text;html=1;align=center;verticalAlign=middle;resizable=0;points=[];autosize=1;strokeColor=none;fillColor=none;" parent="1" vertex="1">
          <mxGeometry x="110" y="70" width="340" height="40" as="geometry" />
        </mxCell>
        <mxCell id="ulu9L9T5XsNM_D27yvi4-2" value="Steps to System Design&amp;nbsp;&lt;div&gt;1) Functional Requirements&amp;nbsp;&lt;br&gt;2) Assumptions if any&amp;nbsp;&lt;br&gt;3) Non Functional Requirements&lt;br&gt;4)Capacity Information&amp;nbsp;&lt;/div&gt;&lt;div&gt;5) APIs&lt;/div&gt;&lt;div&gt;6) HLD For single User&lt;br&gt;9) Scaling of Model&amp;nbsp;&lt;/div&gt;&lt;div&gt;&lt;br&gt;&lt;/div&gt;" style="text;html=1;align=center;verticalAlign=middle;resizable=0;points=[];autosize=1;strokeColor=none;fillColor=none;" parent="1" vertex="1">
          <mxGeometry x="-210" y="120" width="190" height="140" as="geometry" />
        </mxCell>
        <mxCell id="ulu9L9T5XsNM_D27yvi4-3" value="&lt;h1 style=&quot;margin-top: 0px;&quot;&gt;Functional Requirements&lt;/h1&gt;&lt;p&gt;1) View Feed&amp;nbsp;&lt;br&gt;2)&amp;nbsp; Create Post / Story (image / Video / Text)&lt;br&gt;3)&amp;nbsp; Like / Comment&lt;/p&gt;&lt;p&gt;4) Follow Users&lt;/p&gt;&lt;p&gt;5) Search People&lt;/p&gt;&lt;p&gt;&lt;br&gt;&lt;/p&gt;" style="text;html=1;whiteSpace=wrap;overflow=hidden;rounded=0;" parent="1" vertex="1">
          <mxGeometry x="-210" y="260" width="340" height="150" as="geometry" />
        </mxCell>
        <mxCell id="ulu9L9T5XsNM_D27yvi4-4" value="&lt;h1 style=&quot;margin-top: 0px;&quot;&gt;Assumptions&lt;/h1&gt;&lt;div&gt;1) I assume the user is already authenticated&amp;nbsp;&lt;/div&gt;&lt;div&gt;2) All active user post 3 times a month (30Days)&lt;/div&gt;&lt;div&gt;3) 10 MB PER POST ON AVERAGE&lt;/div&gt;" style="text;html=1;whiteSpace=wrap;overflow=hidden;rounded=0;" parent="1" vertex="1">
          <mxGeometry x="120" y="260" width="320" height="150" as="geometry" />
        </mxCell>
        <mxCell id="ulu9L9T5XsNM_D27yvi4-5" value="&lt;h1 style=&quot;margin-top: 0px;&quot;&gt;Non Functional Requirements&amp;nbsp;&lt;/h1&gt;&lt;p&gt;Low Latency in Search&lt;/p&gt;&lt;p&gt;Eventual Consistency for Posting&amp;nbsp;&lt;/p&gt;&lt;p&gt;Like or Comment to have low Latency&amp;nbsp;&lt;/p&gt;&lt;p&gt;Good User experience&amp;nbsp;&lt;/p&gt;" style="text;html=1;whiteSpace=wrap;overflow=hidden;rounded=0;" parent="1" vertex="1">
          <mxGeometry x="400" y="260" width="360" height="170" as="geometry" />
        </mxCell>
        <mxCell id="ulu9L9T5XsNM_D27yvi4-6" value="&lt;h1 style=&quot;margin-top: 0px;&quot;&gt;Capacity and Constraints&amp;nbsp;&lt;/h1&gt;&lt;div&gt;&lt;br&gt;&lt;/div&gt;&lt;div&gt;Total Number of&amp;nbsp; Users on App =&amp;nbsp; 2* 10^9&amp;nbsp;&lt;/div&gt;&lt;div&gt;&lt;br&gt;&lt;/div&gt;&lt;div&gt;These APps are heavy read apps&amp;nbsp; that means more people like to read the post&amp;nbsp; rather than creating a&amp;nbsp; new post&amp;nbsp;&lt;/div&gt;&lt;div&gt;&lt;br&gt;&lt;/div&gt;&lt;div&gt;Daily Active Users : 50 % users&amp;nbsp; = 10^10&lt;/div&gt;&lt;div&gt;&lt;br&gt;&lt;/div&gt;&lt;div&gt;Total Post per day = 10^9 *3/30 = 10^8 (100 Million)&lt;/div&gt;&lt;div&gt;&lt;br&gt;&lt;/div&gt;&lt;div&gt;Storage Requirements&amp;nbsp;&lt;br&gt;&lt;br&gt;STORAGE CAPACITY =&amp;nbsp; 10 MB * 10^8&amp;nbsp; = 10^9 MB for Storage&amp;nbsp;&lt;/div&gt;&lt;div&gt;&lt;br&gt;&lt;/div&gt;&lt;div&gt;&lt;br&gt;&lt;/div&gt;&lt;div&gt;&lt;br&gt;&lt;/div&gt;&lt;div&gt;&lt;br&gt;&lt;/div&gt;&lt;div&gt;&lt;br&gt;&lt;/div&gt;&lt;div&gt;&lt;br&gt;&lt;/div&gt;&lt;div&gt;&lt;br&gt;&lt;/div&gt;&lt;div&gt;&lt;br&gt;&lt;/div&gt;" style="text;html=1;whiteSpace=wrap;overflow=hidden;rounded=0;" parent="1" vertex="1">
          <mxGeometry x="-210" y="450" width="610" height="240" as="geometry" />
        </mxCell>
        <mxCell id="ulu9L9T5XsNM_D27yvi4-8" value="&lt;h1 style=&quot;margin-top: 0px;&quot;&gt;APIs&lt;/h1&gt;&lt;div&gt;1) getFeed(userID) return 20 Post&amp;nbsp; &amp;nbsp;Display the feed to the user&amp;nbsp;&lt;/div&gt;&lt;div&gt;&lt;br&gt;&lt;/div&gt;&lt;div&gt;2)&amp;nbsp; CreatePost(UserID,Media , Description , meta Data )&lt;/div&gt;&lt;div&gt;&lt;br&gt;&lt;/div&gt;&lt;div&gt;3) postFollower(user1 , user2) u1 will folow u2&amp;nbsp;&lt;/div&gt;&lt;div&gt;&lt;br&gt;&lt;/div&gt;&lt;div&gt;4) SearchPeople(string input) will return 30 people with similar name&amp;nbsp;&lt;/div&gt;&lt;div&gt;&lt;br&gt;&lt;/div&gt;&lt;div&gt;5) interactionService(userid,postid,description , media)&lt;/div&gt;" style="text;html=1;whiteSpace=wrap;overflow=hidden;rounded=0;" parent="1" vertex="1">
          <mxGeometry x="480" y="440" width="370" height="190" as="geometry" />
        </mxCell>
        <mxCell id="ulu9L9T5XsNM_D27yvi4-10" value="&lt;h1 style=&quot;margin-top: 0px;&quot;&gt;&lt;span style=&quot;background-color: transparent; color: light-dark(rgb(0, 0, 0), rgb(255, 255, 255));&quot;&gt;Storage Structure&amp;nbsp;&lt;/span&gt;&lt;/h1&gt;" style="text;html=1;whiteSpace=wrap;overflow=hidden;rounded=0;" parent="1" vertex="1">
          <mxGeometry x="-200" y="720" width="250" height="40" as="geometry" />
        </mxCell>
        <mxCell id="ulu9L9T5XsNM_D27yvi4-24" value="User Table&amp;nbsp;" style="shape=table;startSize=30;container=1;collapsible=1;childLayout=tableLayout;fixedRows=1;rowLines=0;fontStyle=1;align=center;resizeLast=1;html=1;" parent="1" vertex="1">
          <mxGeometry x="-200" y="800" width="180" height="180" as="geometry" />
        </mxCell>
        <mxCell id="ulu9L9T5XsNM_D27yvi4-25" value="" style="shape=tableRow;horizontal=0;startSize=0;swimlaneHead=0;swimlaneBody=0;fillColor=none;collapsible=0;dropTarget=0;points=[[0,0.5],[1,0.5]];portConstraint=eastwest;top=0;left=0;right=0;bottom=1;" parent="ulu9L9T5XsNM_D27yvi4-24" vertex="1">
          <mxGeometry y="30" width="180" height="30" as="geometry" />
        </mxCell>
        <mxCell id="ulu9L9T5XsNM_D27yvi4-26" value="PK" style="shape=partialRectangle;connectable=0;fillColor=none;top=0;left=0;bottom=0;right=0;fontStyle=1;overflow=hidden;whiteSpace=wrap;html=1;" parent="ulu9L9T5XsNM_D27yvi4-25" vertex="1">
          <mxGeometry width="30" height="30" as="geometry">
            <mxRectangle width="30" height="30" as="alternateBounds" />
          </mxGeometry>
        </mxCell>
        <mxCell id="ulu9L9T5XsNM_D27yvi4-27" value="UserID" style="shape=partialRectangle;connectable=0;fillColor=none;top=0;left=0;bottom=0;right=0;align=left;spacingLeft=6;fontStyle=5;overflow=hidden;whiteSpace=wrap;html=1;" parent="ulu9L9T5XsNM_D27yvi4-25" vertex="1">
          <mxGeometry x="30" width="150" height="30" as="geometry">
            <mxRectangle width="150" height="30" as="alternateBounds" />
          </mxGeometry>
        </mxCell>
        <mxCell id="ulu9L9T5XsNM_D27yvi4-28" value="" style="shape=tableRow;horizontal=0;startSize=0;swimlaneHead=0;swimlaneBody=0;fillColor=none;collapsible=0;dropTarget=0;points=[[0,0.5],[1,0.5]];portConstraint=eastwest;top=0;left=0;right=0;bottom=0;" parent="ulu9L9T5XsNM_D27yvi4-24" vertex="1">
          <mxGeometry y="60" width="180" height="30" as="geometry" />
        </mxCell>
        <mxCell id="ulu9L9T5XsNM_D27yvi4-29" value="" style="shape=partialRectangle;connectable=0;fillColor=none;top=0;left=0;bottom=0;right=0;editable=1;overflow=hidden;whiteSpace=wrap;html=1;" parent="ulu9L9T5XsNM_D27yvi4-28" vertex="1">
          <mxGeometry width="30" height="30" as="geometry">
            <mxRectangle width="30" height="30" as="alternateBounds" />
          </mxGeometry>
        </mxCell>
        <mxCell id="ulu9L9T5XsNM_D27yvi4-30" value="First Name&lt;span style=&quot;white-space: pre;&quot;&gt;&#x9;&lt;/span&gt;" style="shape=partialRectangle;connectable=0;fillColor=none;top=0;left=0;bottom=0;right=0;align=left;spacingLeft=6;overflow=hidden;whiteSpace=wrap;html=1;" parent="ulu9L9T5XsNM_D27yvi4-28" vertex="1">
          <mxGeometry x="30" width="150" height="30" as="geometry">
            <mxRectangle width="150" height="30" as="alternateBounds" />
          </mxGeometry>
        </mxCell>
        <mxCell id="ulu9L9T5XsNM_D27yvi4-31" value="" style="shape=tableRow;horizontal=0;startSize=0;swimlaneHead=0;swimlaneBody=0;fillColor=none;collapsible=0;dropTarget=0;points=[[0,0.5],[1,0.5]];portConstraint=eastwest;top=0;left=0;right=0;bottom=0;" parent="ulu9L9T5XsNM_D27yvi4-24" vertex="1">
          <mxGeometry y="90" width="180" height="30" as="geometry" />
        </mxCell>
        <mxCell id="ulu9L9T5XsNM_D27yvi4-32" value="" style="shape=partialRectangle;connectable=0;fillColor=none;top=0;left=0;bottom=0;right=0;editable=1;overflow=hidden;whiteSpace=wrap;html=1;" parent="ulu9L9T5XsNM_D27yvi4-31" vertex="1">
          <mxGeometry width="30" height="30" as="geometry">
            <mxRectangle width="30" height="30" as="alternateBounds" />
          </mxGeometry>
        </mxCell>
        <mxCell id="ulu9L9T5XsNM_D27yvi4-33" value="" style="shape=partialRectangle;connectable=0;fillColor=none;top=0;left=0;bottom=0;right=0;align=left;spacingLeft=6;overflow=hidden;whiteSpace=wrap;html=1;" parent="ulu9L9T5XsNM_D27yvi4-31" vertex="1">
          <mxGeometry x="30" width="150" height="30" as="geometry">
            <mxRectangle width="150" height="30" as="alternateBounds" />
          </mxGeometry>
        </mxCell>
        <mxCell id="ulu9L9T5XsNM_D27yvi4-34" value="" style="shape=tableRow;horizontal=0;startSize=0;swimlaneHead=0;swimlaneBody=0;fillColor=none;collapsible=0;dropTarget=0;points=[[0,0.5],[1,0.5]];portConstraint=eastwest;top=0;left=0;right=0;bottom=0;" parent="ulu9L9T5XsNM_D27yvi4-24" vertex="1">
          <mxGeometry y="120" width="180" height="30" as="geometry" />
        </mxCell>
        <mxCell id="ulu9L9T5XsNM_D27yvi4-35" value="" style="shape=partialRectangle;connectable=0;fillColor=none;top=0;left=0;bottom=0;right=0;editable=1;overflow=hidden;whiteSpace=wrap;html=1;" parent="ulu9L9T5XsNM_D27yvi4-34" vertex="1">
          <mxGeometry width="30" height="30" as="geometry">
            <mxRectangle width="30" height="30" as="alternateBounds" />
          </mxGeometry>
        </mxCell>
        <mxCell id="ulu9L9T5XsNM_D27yvi4-36" value="Address" style="shape=partialRectangle;connectable=0;fillColor=none;top=0;left=0;bottom=0;right=0;align=left;spacingLeft=6;overflow=hidden;whiteSpace=wrap;html=1;" parent="ulu9L9T5XsNM_D27yvi4-34" vertex="1">
          <mxGeometry x="30" width="150" height="30" as="geometry">
            <mxRectangle width="150" height="30" as="alternateBounds" />
          </mxGeometry>
        </mxCell>
        <mxCell id="ulu9L9T5XsNM_D27yvi4-37" value="" style="shape=tableRow;horizontal=0;startSize=0;swimlaneHead=0;swimlaneBody=0;fillColor=none;collapsible=0;dropTarget=0;points=[[0,0.5],[1,0.5]];portConstraint=eastwest;top=0;left=0;right=0;bottom=0;" parent="1" vertex="1">
          <mxGeometry x="-200" y="950" width="180" height="30" as="geometry" />
        </mxCell>
        <mxCell id="ulu9L9T5XsNM_D27yvi4-38" value="Contact Details&amp;nbsp;" style="shape=partialRectangle;connectable=0;fillColor=none;top=0;left=0;bottom=0;right=0;editable=1;overflow=hidden;whiteSpace=wrap;html=1;" parent="ulu9L9T5XsNM_D27yvi4-37" vertex="1">
          <mxGeometry width="170" height="30" as="geometry">
            <mxRectangle width="30" height="30" as="alternateBounds" />
          </mxGeometry>
        </mxCell>
        <mxCell id="ulu9L9T5XsNM_D27yvi4-40" value="" style="shape=tableRow;horizontal=0;startSize=0;swimlaneHead=0;swimlaneBody=0;fillColor=none;collapsible=0;dropTarget=0;points=[[0,0.5],[1,0.5]];portConstraint=eastwest;top=0;left=0;right=0;bottom=0;" parent="1" vertex="1">
          <mxGeometry x="-200" y="890" width="180" height="30" as="geometry" />
        </mxCell>
        <mxCell id="ulu9L9T5XsNM_D27yvi4-41" value="" style="shape=partialRectangle;connectable=0;fillColor=none;top=0;left=0;bottom=0;right=0;editable=1;overflow=hidden;whiteSpace=wrap;html=1;" parent="ulu9L9T5XsNM_D27yvi4-40" vertex="1">
          <mxGeometry width="30" height="30" as="geometry">
            <mxRectangle width="30" height="30" as="alternateBounds" />
          </mxGeometry>
        </mxCell>
        <mxCell id="ulu9L9T5XsNM_D27yvi4-42" value="Last Name" style="shape=partialRectangle;connectable=0;fillColor=none;top=0;left=0;bottom=0;right=0;align=left;spacingLeft=6;overflow=hidden;whiteSpace=wrap;html=1;" parent="ulu9L9T5XsNM_D27yvi4-40" vertex="1">
          <mxGeometry x="30" width="150" height="30" as="geometry">
            <mxRectangle width="150" height="30" as="alternateBounds" />
          </mxGeometry>
        </mxCell>
        <mxCell id="ulu9L9T5XsNM_D27yvi4-56" value="Attribute" style="ellipse;whiteSpace=wrap;html=1;align=center;" parent="1" vertex="1">
          <mxGeometry x="132" y="818" width="100" height="40" as="geometry" />
        </mxCell>
        <mxCell id="ulu9L9T5XsNM_D27yvi4-57" value="Attribute" style="ellipse;whiteSpace=wrap;html=1;align=center;" parent="1" vertex="1">
          <mxGeometry x="192" y="933" width="100" height="40" as="geometry" />
        </mxCell>
        <mxCell id="ulu9L9T5XsNM_D27yvi4-58" value="Attribute" style="ellipse;whiteSpace=wrap;html=1;align=center;" parent="1" vertex="1">
          <mxGeometry x="332" y="828" width="100" height="40" as="geometry" />
        </mxCell>
        <mxCell id="ulu9L9T5XsNM_D27yvi4-59" value="Attribute" style="ellipse;whiteSpace=wrap;html=1;align=center;" parent="1" vertex="1">
          <mxGeometry x="82" y="998" width="100" height="40" as="geometry" />
        </mxCell>
        <mxCell id="ulu9L9T5XsNM_D27yvi4-60" value="Attribute" style="ellipse;whiteSpace=wrap;html=1;align=center;" parent="1" vertex="1">
          <mxGeometry x="402" y="988" width="100" height="40" as="geometry" />
        </mxCell>
        <mxCell id="ulu9L9T5XsNM_D27yvi4-61" value="" style="curved=1;endArrow=classic;html=1;rounded=0;" parent="1" target="ulu9L9T5XsNM_D27yvi4-58" edge="1">
          <mxGeometry width="50" height="50" relative="1" as="geometry">
            <mxPoint x="232" y="838" as="sourcePoint" />
            <mxPoint x="282" y="788" as="targetPoint" />
            <Array as="points">
              <mxPoint x="282" y="838" />
              <mxPoint x="232" y="788" />
            </Array>
          </mxGeometry>
        </mxCell>
        <mxCell id="ulu9L9T5XsNM_D27yvi4-62" value="" style="curved=1;endArrow=classic;html=1;rounded=0;entryX=0.368;entryY=1.09;entryDx=0;entryDy=0;entryPerimeter=0;" parent="1" target="ulu9L9T5XsNM_D27yvi4-56" edge="1">
          <mxGeometry width="50" height="50" relative="1" as="geometry">
            <mxPoint x="112" y="998" as="sourcePoint" />
            <mxPoint x="162" y="948" as="targetPoint" />
            <Array as="points">
              <mxPoint x="162" y="998" />
              <mxPoint x="112" y="948" />
            </Array>
          </mxGeometry>
        </mxCell>
        <mxCell id="ulu9L9T5XsNM_D27yvi4-63" value="" style="curved=1;endArrow=classic;html=1;rounded=0;entryX=0.5;entryY=0;entryDx=0;entryDy=0;" parent="1" target="ulu9L9T5XsNM_D27yvi4-57" edge="1">
          <mxGeometry width="50" height="50" relative="1" as="geometry">
            <mxPoint x="192" y="858" as="sourcePoint" />
            <mxPoint x="242" y="808" as="targetPoint" />
            <Array as="points">
              <mxPoint x="242" y="858" />
              <mxPoint x="192" y="808" />
            </Array>
          </mxGeometry>
        </mxCell>
        <mxCell id="ulu9L9T5XsNM_D27yvi4-64" value="" style="curved=1;endArrow=classic;html=1;rounded=0;exitX=1;exitY=0.695;exitDx=0;exitDy=0;exitPerimeter=0;" parent="1" source="ulu9L9T5XsNM_D27yvi4-57" edge="1">
          <mxGeometry width="50" height="50" relative="1" as="geometry">
            <mxPoint x="272" y="948" as="sourcePoint" />
            <mxPoint x="182" y="868" as="targetPoint" />
            <Array as="points">
              <mxPoint x="322" y="948" />
              <mxPoint x="302" y="908" />
              <mxPoint x="272" y="898" />
            </Array>
          </mxGeometry>
        </mxCell>
        <mxCell id="ulu9L9T5XsNM_D27yvi4-65" value="" style="curved=1;endArrow=classic;html=1;rounded=0;entryX=0.5;entryY=1;entryDx=0;entryDy=0;" parent="1" target="ulu9L9T5XsNM_D27yvi4-58" edge="1">
          <mxGeometry width="50" height="50" relative="1" as="geometry">
            <mxPoint x="432" y="988" as="sourcePoint" />
            <mxPoint x="482" y="938" as="targetPoint" />
            <Array as="points">
              <mxPoint x="482" y="988" />
              <mxPoint x="432" y="938" />
            </Array>
          </mxGeometry>
        </mxCell>
        <mxCell id="ulu9L9T5XsNM_D27yvi4-66" value="&lt;h1 style=&quot;margin-top: 0px;&quot;&gt;&lt;span style=&quot;background-color: transparent; color: light-dark(rgb(0, 0, 0), rgb(255, 255, 255));&quot;&gt;Connection Database Graph can be used&amp;nbsp;&lt;/span&gt;&lt;/h1&gt;" style="text;html=1;whiteSpace=wrap;overflow=hidden;rounded=0;" parent="1" vertex="1">
          <mxGeometry x="82" y="720" width="488" height="40" as="geometry" />
        </mxCell>
        <mxCell id="ulu9L9T5XsNM_D27yvi4-67" value="Attribute" style="ellipse;whiteSpace=wrap;html=1;align=center;" parent="1" vertex="1">
          <mxGeometry x="82" y="1150" width="100" height="40" as="geometry" />
        </mxCell>
        <mxCell id="ulu9L9T5XsNM_D27yvi4-68" value="Attribute" style="ellipse;whiteSpace=wrap;html=1;align=center;" parent="1" vertex="1">
          <mxGeometry x="370" y="1120" width="100" height="40" as="geometry" />
        </mxCell>
        <mxCell id="ulu9L9T5XsNM_D27yvi4-69" value="Attribute" style="ellipse;whiteSpace=wrap;html=1;align=center;" parent="1" vertex="1">
          <mxGeometry x="110" y="1340" width="100" height="40" as="geometry" />
        </mxCell>
        <mxCell id="ulu9L9T5XsNM_D27yvi4-70" value="Attribute" style="ellipse;whiteSpace=wrap;html=1;align=center;" parent="1" vertex="1">
          <mxGeometry x="320" y="1240" width="100" height="40" as="geometry" />
        </mxCell>
        <mxCell id="ulu9L9T5XsNM_D27yvi4-71" value="Attribute" style="ellipse;whiteSpace=wrap;html=1;align=center;" parent="1" vertex="1">
          <mxGeometry x="320" y="1430" width="100" height="40" as="geometry" />
        </mxCell>
        <mxCell id="ulu9L9T5XsNM_D27yvi4-72" value="" style="endArrow=classic;startArrow=classic;html=1;rounded=0;entryX=0.392;entryY=1.04;entryDx=0;entryDy=0;entryPerimeter=0;" parent="1" target="ulu9L9T5XsNM_D27yvi4-68" edge="1">
          <mxGeometry width="50" height="50" relative="1" as="geometry">
            <mxPoint x="370" y="1240" as="sourcePoint" />
            <mxPoint x="420" y="1190" as="targetPoint" />
          </mxGeometry>
        </mxCell>
        <mxCell id="ulu9L9T5XsNM_D27yvi4-73" value="" style="endArrow=classic;startArrow=classic;html=1;rounded=0;entryX=0.384;entryY=1.09;entryDx=0;entryDy=0;entryPerimeter=0;" parent="1" target="ulu9L9T5XsNM_D27yvi4-67" edge="1">
          <mxGeometry width="50" height="50" relative="1" as="geometry">
            <mxPoint x="140" y="1340" as="sourcePoint" />
            <mxPoint x="190" y="1300" as="targetPoint" />
          </mxGeometry>
        </mxCell>
        <mxCell id="ulu9L9T5XsNM_D27yvi4-74" value="" style="endArrow=classic;startArrow=classic;html=1;rounded=0;entryX=0;entryY=1;entryDx=0;entryDy=0;" parent="1" target="ulu9L9T5XsNM_D27yvi4-70" edge="1">
          <mxGeometry width="50" height="50" relative="1" as="geometry">
            <mxPoint x="200" y="1350" as="sourcePoint" />
            <mxPoint x="250" y="1300" as="targetPoint" />
          </mxGeometry>
        </mxCell>
        <mxCell id="ulu9L9T5XsNM_D27yvi4-75" value="" style="endArrow=classic;startArrow=classic;html=1;rounded=0;entryX=1;entryY=1;entryDx=0;entryDy=0;" parent="1" target="ulu9L9T5XsNM_D27yvi4-69" edge="1">
          <mxGeometry width="50" height="50" relative="1" as="geometry">
            <mxPoint x="330" y="1440" as="sourcePoint" />
            <mxPoint x="380" y="1390" as="targetPoint" />
          </mxGeometry>
        </mxCell>
        <mxCell id="ulu9L9T5XsNM_D27yvi4-76" value="" style="endArrow=classic;startArrow=classic;html=1;rounded=0;entryX=0.64;entryY=0.95;entryDx=0;entryDy=0;entryPerimeter=0;" parent="1" target="ulu9L9T5XsNM_D27yvi4-67" edge="1">
          <mxGeometry width="50" height="50" relative="1" as="geometry">
            <mxPoint x="360" y="1430" as="sourcePoint" />
            <mxPoint x="410" y="1380" as="targetPoint" />
          </mxGeometry>
        </mxCell>
        <mxCell id="ulu9L9T5XsNM_D27yvi4-77" value="" style="endArrow=classic;startArrow=classic;html=1;rounded=0;entryX=0.5;entryY=1;entryDx=0;entryDy=0;" parent="1" target="ulu9L9T5XsNM_D27yvi4-70" edge="1">
          <mxGeometry width="50" height="50" relative="1" as="geometry">
            <mxPoint x="370" y="1430" as="sourcePoint" />
            <mxPoint x="420" y="1380" as="targetPoint" />
          </mxGeometry>
        </mxCell>
        <mxCell id="ulu9L9T5XsNM_D27yvi4-78" value="" style="endArrow=classic;startArrow=classic;html=1;rounded=0;entryX=0.016;entryY=0.72;entryDx=0;entryDy=0;entryPerimeter=0;" parent="1" target="ulu9L9T5XsNM_D27yvi4-68" edge="1">
          <mxGeometry width="50" height="50" relative="1" as="geometry">
            <mxPoint x="160" y="1340" as="sourcePoint" />
            <mxPoint x="210" y="1290" as="targetPoint" />
          </mxGeometry>
        </mxCell>
        <mxCell id="ulu9L9T5XsNM_D27yvi4-79" value="" style="endArrow=classic;startArrow=classic;html=1;rounded=0;entryX=1;entryY=1;entryDx=0;entryDy=0;" parent="1" target="ulu9L9T5XsNM_D27yvi4-68" edge="1">
          <mxGeometry width="50" height="50" relative="1" as="geometry">
            <mxPoint x="400" y="1430" as="sourcePoint" />
            <mxPoint x="450" y="1380" as="targetPoint" />
          </mxGeometry>
        </mxCell>
        <mxCell id="ulu9L9T5XsNM_D27yvi4-80" value="Instagram" style="text;html=1;align=center;verticalAlign=middle;whiteSpace=wrap;rounded=0;" parent="1" vertex="1">
          <mxGeometry x="432" y="780" width="60" height="30" as="geometry" />
        </mxCell>
        <mxCell id="ulu9L9T5XsNM_D27yvi4-81" value="Facbook&amp;nbsp;" style="text;html=1;align=center;verticalAlign=middle;whiteSpace=wrap;rounded=0;" parent="1" vertex="1">
          <mxGeometry x="440" y="1080" width="60" height="30" as="geometry" />
        </mxCell>
        <mxCell id="ulu9L9T5XsNM_D27yvi4-82" value="Post Table" style="shape=table;startSize=30;container=1;collapsible=1;childLayout=tableLayout;fixedRows=1;rowLines=0;fontStyle=1;align=center;resizeLast=1;html=1;" parent="1" vertex="1">
          <mxGeometry x="630" y="800" width="180" height="160" as="geometry" />
        </mxCell>
        <mxCell id="ulu9L9T5XsNM_D27yvi4-83" value="" style="shape=tableRow;horizontal=0;startSize=0;swimlaneHead=0;swimlaneBody=0;fillColor=none;collapsible=0;dropTarget=0;points=[[0,0.5],[1,0.5]];portConstraint=eastwest;top=0;left=0;right=0;bottom=1;" parent="ulu9L9T5XsNM_D27yvi4-82" vertex="1">
          <mxGeometry y="30" width="180" height="30" as="geometry" />
        </mxCell>
        <mxCell id="ulu9L9T5XsNM_D27yvi4-84" value="PK" style="shape=partialRectangle;connectable=0;fillColor=none;top=0;left=0;bottom=0;right=0;fontStyle=1;overflow=hidden;whiteSpace=wrap;html=1;" parent="ulu9L9T5XsNM_D27yvi4-83" vertex="1">
          <mxGeometry width="30" height="30" as="geometry">
            <mxRectangle width="30" height="30" as="alternateBounds" />
          </mxGeometry>
        </mxCell>
        <mxCell id="ulu9L9T5XsNM_D27yvi4-85" value="PostID" style="shape=partialRectangle;connectable=0;fillColor=none;top=0;left=0;bottom=0;right=0;align=left;spacingLeft=6;fontStyle=5;overflow=hidden;whiteSpace=wrap;html=1;" parent="ulu9L9T5XsNM_D27yvi4-83" vertex="1">
          <mxGeometry x="30" width="150" height="30" as="geometry">
            <mxRectangle width="150" height="30" as="alternateBounds" />
          </mxGeometry>
        </mxCell>
        <mxCell id="ulu9L9T5XsNM_D27yvi4-86" value="" style="shape=tableRow;horizontal=0;startSize=0;swimlaneHead=0;swimlaneBody=0;fillColor=none;collapsible=0;dropTarget=0;points=[[0,0.5],[1,0.5]];portConstraint=eastwest;top=0;left=0;right=0;bottom=0;" parent="ulu9L9T5XsNM_D27yvi4-82" vertex="1">
          <mxGeometry y="60" width="180" height="30" as="geometry" />
        </mxCell>
        <mxCell id="ulu9L9T5XsNM_D27yvi4-87" value="" style="shape=partialRectangle;connectable=0;fillColor=none;top=0;left=0;bottom=0;right=0;editable=1;overflow=hidden;whiteSpace=wrap;html=1;" parent="ulu9L9T5XsNM_D27yvi4-86" vertex="1">
          <mxGeometry width="30" height="30" as="geometry">
            <mxRectangle width="30" height="30" as="alternateBounds" />
          </mxGeometry>
        </mxCell>
        <mxCell id="ulu9L9T5XsNM_D27yvi4-88" value="UserId FK" style="shape=partialRectangle;connectable=0;fillColor=none;top=0;left=0;bottom=0;right=0;align=left;spacingLeft=6;overflow=hidden;whiteSpace=wrap;html=1;" parent="ulu9L9T5XsNM_D27yvi4-86" vertex="1">
          <mxGeometry x="30" width="150" height="30" as="geometry">
            <mxRectangle width="150" height="30" as="alternateBounds" />
          </mxGeometry>
        </mxCell>
        <mxCell id="ulu9L9T5XsNM_D27yvi4-89" value="" style="shape=tableRow;horizontal=0;startSize=0;swimlaneHead=0;swimlaneBody=0;fillColor=none;collapsible=0;dropTarget=0;points=[[0,0.5],[1,0.5]];portConstraint=eastwest;top=0;left=0;right=0;bottom=0;" parent="ulu9L9T5XsNM_D27yvi4-82" vertex="1">
          <mxGeometry y="90" width="180" height="30" as="geometry" />
        </mxCell>
        <mxCell id="ulu9L9T5XsNM_D27yvi4-90" value="" style="shape=partialRectangle;connectable=0;fillColor=none;top=0;left=0;bottom=0;right=0;editable=1;overflow=hidden;whiteSpace=wrap;html=1;" parent="ulu9L9T5XsNM_D27yvi4-89" vertex="1">
          <mxGeometry width="30" height="30" as="geometry">
            <mxRectangle width="30" height="30" as="alternateBounds" />
          </mxGeometry>
        </mxCell>
        <mxCell id="ulu9L9T5XsNM_D27yvi4-91" value="PostURL" style="shape=partialRectangle;connectable=0;fillColor=none;top=0;left=0;bottom=0;right=0;align=left;spacingLeft=6;overflow=hidden;whiteSpace=wrap;html=1;" parent="ulu9L9T5XsNM_D27yvi4-89" vertex="1">
          <mxGeometry x="30" width="150" height="30" as="geometry">
            <mxRectangle width="150" height="30" as="alternateBounds" />
          </mxGeometry>
        </mxCell>
        <mxCell id="ulu9L9T5XsNM_D27yvi4-92" value="" style="shape=tableRow;horizontal=0;startSize=0;swimlaneHead=0;swimlaneBody=0;fillColor=none;collapsible=0;dropTarget=0;points=[[0,0.5],[1,0.5]];portConstraint=eastwest;top=0;left=0;right=0;bottom=0;" parent="ulu9L9T5XsNM_D27yvi4-82" vertex="1">
          <mxGeometry y="120" width="180" height="30" as="geometry" />
        </mxCell>
        <mxCell id="ulu9L9T5XsNM_D27yvi4-93" value="" style="shape=partialRectangle;connectable=0;fillColor=none;top=0;left=0;bottom=0;right=0;editable=1;overflow=hidden;whiteSpace=wrap;html=1;" parent="ulu9L9T5XsNM_D27yvi4-92" vertex="1">
          <mxGeometry width="30" height="30" as="geometry">
            <mxRectangle width="30" height="30" as="alternateBounds" />
          </mxGeometry>
        </mxCell>
        <mxCell id="ulu9L9T5XsNM_D27yvi4-94" value="Post _ Description&amp;nbsp;" style="shape=partialRectangle;connectable=0;fillColor=none;top=0;left=0;bottom=0;right=0;align=left;spacingLeft=6;overflow=hidden;whiteSpace=wrap;html=1;" parent="ulu9L9T5XsNM_D27yvi4-92" vertex="1">
          <mxGeometry x="30" width="150" height="30" as="geometry">
            <mxRectangle width="150" height="30" as="alternateBounds" />
          </mxGeometry>
        </mxCell>
        <mxCell id="ulu9L9T5XsNM_D27yvi4-96" value="&lt;h1 style=&quot;margin-top: 0px;&quot;&gt;Post Table&amp;nbsp;&lt;/h1&gt;" style="text;html=1;whiteSpace=wrap;overflow=hidden;rounded=0;" parent="1" vertex="1">
          <mxGeometry x="620" y="720" width="350" height="40" as="geometry" />
        </mxCell>
        <mxCell id="ulu9L9T5XsNM_D27yvi4-100" value="&lt;h1 style=&quot;margin-top: 0px;&quot;&gt;Interaction NoSQL JSON&lt;/h1&gt;" style="text;html=1;whiteSpace=wrap;overflow=hidden;rounded=0;" parent="1" vertex="1">
          <mxGeometry x="600" y="980" width="350" height="40" as="geometry" />
        </mxCell>
        <mxCell id="ulu9L9T5XsNM_D27yvi4-101" value="{&lt;div&gt;UserID,&lt;/div&gt;&lt;div&gt;CommentID,&lt;/div&gt;&lt;div&gt;&lt;span style=&quot;background-color: transparent; color: light-dark(rgb(0, 0, 0), rgb(255, 255, 255));&quot;&gt;&amp;nbsp;Like&lt;/span&gt;&lt;/div&gt;&lt;div&gt;PostID&lt;br&gt;&lt;div&gt;}&lt;/div&gt;&lt;/div&gt;" style="ellipse;shape=cloud;whiteSpace=wrap;html=1;" parent="1" vertex="1">
          <mxGeometry x="610" y="1020" width="300" height="230" as="geometry" />
        </mxCell>
        <mxCell id="ulu9L9T5XsNM_D27yvi4-103" value="&lt;h1 style=&quot;margin-top: 0px;&quot;&gt;High Level Design of Instagram / Facebook / Tiktok&amp;nbsp;&lt;/h1&gt;" style="text;html=1;whiteSpace=wrap;overflow=hidden;rounded=0;" parent="1" vertex="1">
          <mxGeometry x="-20" y="1490" width="620" height="50" as="geometry" />
        </mxCell>
        <mxCell id="ulu9L9T5XsNM_D27yvi4-112" style="edgeStyle=orthogonalEdgeStyle;rounded=0;orthogonalLoop=1;jettySize=auto;html=1;entryX=0;entryY=0.75;entryDx=0;entryDy=0;" parent="1" source="ulu9L9T5XsNM_D27yvi4-172" target="ulu9L9T5XsNM_D27yvi4-111" edge="1">
          <mxGeometry relative="1" as="geometry" />
        </mxCell>
        <mxCell id="ulu9L9T5XsNM_D27yvi4-120" style="edgeStyle=orthogonalEdgeStyle;rounded=0;orthogonalLoop=1;jettySize=auto;html=1;entryX=0;entryY=0.5;entryDx=0;entryDy=0;" parent="1" source="ulu9L9T5XsNM_D27yvi4-110" target="ulu9L9T5XsNM_D27yvi4-119" edge="1">
          <mxGeometry relative="1" as="geometry" />
        </mxCell>
        <mxCell id="ulu9L9T5XsNM_D27yvi4-140" style="edgeStyle=orthogonalEdgeStyle;rounded=0;orthogonalLoop=1;jettySize=auto;html=1;entryX=0;entryY=0.5;entryDx=0;entryDy=0;" parent="1" source="ulu9L9T5XsNM_D27yvi4-110" target="ulu9L9T5XsNM_D27yvi4-135" edge="1">
          <mxGeometry relative="1" as="geometry" />
        </mxCell>
        <mxCell id="ulu9L9T5XsNM_D27yvi4-142" style="edgeStyle=orthogonalEdgeStyle;rounded=0;orthogonalLoop=1;jettySize=auto;html=1;entryX=0;entryY=0.75;entryDx=0;entryDy=0;" parent="1" source="ulu9L9T5XsNM_D27yvi4-169" target="ulu9L9T5XsNM_D27yvi4-141" edge="1">
          <mxGeometry relative="1" as="geometry" />
        </mxCell>
        <mxCell id="ulu9L9T5XsNM_D27yvi4-149" style="edgeStyle=orthogonalEdgeStyle;rounded=0;orthogonalLoop=1;jettySize=auto;html=1;entryX=0;entryY=0.25;entryDx=0;entryDy=0;" parent="1" source="ulu9L9T5XsNM_D27yvi4-169" target="ulu9L9T5XsNM_D27yvi4-147" edge="1">
          <mxGeometry relative="1" as="geometry" />
        </mxCell>
        <mxCell id="ulu9L9T5XsNM_D27yvi4-110" value="Actor" style="shape=umlActor;verticalLabelPosition=bottom;verticalAlign=top;html=1;outlineConnect=0;" parent="1" vertex="1">
          <mxGeometry x="-390" y="1980" width="30" height="60" as="geometry" />
        </mxCell>
        <mxCell id="ulu9L9T5XsNM_D27yvi4-111" value="Get Feed Service" style="shape=process;whiteSpace=wrap;html=1;backgroundOutline=1;" parent="1" vertex="1">
          <mxGeometry x="-108" y="1710" width="120" height="60" as="geometry" />
        </mxCell>
        <mxCell id="ulu9L9T5XsNM_D27yvi4-113" value="Connnection DB" style="shape=cylinder3;whiteSpace=wrap;html=1;boundedLbl=1;backgroundOutline=1;size=15;" parent="1" vertex="1">
          <mxGeometry x="470" y="1580" width="60" height="80" as="geometry" />
        </mxCell>
        <mxCell id="ulu9L9T5XsNM_D27yvi4-132" style="edgeStyle=orthogonalEdgeStyle;rounded=0;orthogonalLoop=1;jettySize=auto;html=1;entryX=0.75;entryY=0;entryDx=0;entryDy=0;" parent="1" source="ulu9L9T5XsNM_D27yvi4-114" target="ulu9L9T5XsNM_D27yvi4-131" edge="1">
          <mxGeometry relative="1" as="geometry" />
        </mxCell>
        <mxCell id="ulu9L9T5XsNM_D27yvi4-114" value="Post Database" style="shape=cylinder3;whiteSpace=wrap;html=1;boundedLbl=1;backgroundOutline=1;size=15;" parent="1" vertex="1">
          <mxGeometry x="330" y="1800" width="60" height="80" as="geometry" />
        </mxCell>
        <mxCell id="ulu9L9T5XsNM_D27yvi4-115" style="edgeStyle=orthogonalEdgeStyle;rounded=0;orthogonalLoop=1;jettySize=auto;html=1;entryX=0;entryY=0;entryDx=0;entryDy=52.5;entryPerimeter=0;" parent="1" source="ulu9L9T5XsNM_D27yvi4-111" target="ulu9L9T5XsNM_D27yvi4-114" edge="1">
          <mxGeometry relative="1" as="geometry" />
        </mxCell>
        <mxCell id="ulu9L9T5XsNM_D27yvi4-116" style="edgeStyle=orthogonalEdgeStyle;rounded=0;orthogonalLoop=1;jettySize=auto;html=1;entryX=0;entryY=0;entryDx=0;entryDy=52.5;entryPerimeter=0;" parent="1" source="ulu9L9T5XsNM_D27yvi4-111" target="ulu9L9T5XsNM_D27yvi4-113" edge="1">
          <mxGeometry relative="1" as="geometry" />
        </mxCell>
        <mxCell id="ulu9L9T5XsNM_D27yvi4-117" value="Object Database" style="shape=cylinder3;whiteSpace=wrap;html=1;boundedLbl=1;backgroundOutline=1;size=15;" parent="1" vertex="1">
          <mxGeometry x="600" y="1800" width="60" height="80" as="geometry" />
        </mxCell>
        <mxCell id="ulu9L9T5XsNM_D27yvi4-118" style="edgeStyle=orthogonalEdgeStyle;rounded=0;orthogonalLoop=1;jettySize=auto;html=1;entryX=0;entryY=0.5;entryDx=0;entryDy=0;entryPerimeter=0;" parent="1" source="ulu9L9T5XsNM_D27yvi4-114" target="ulu9L9T5XsNM_D27yvi4-117" edge="1">
          <mxGeometry relative="1" as="geometry" />
        </mxCell>
        <mxCell id="ulu9L9T5XsNM_D27yvi4-119" value="Create Post" style="shape=process;whiteSpace=wrap;html=1;backgroundOutline=1;" parent="1" vertex="1">
          <mxGeometry x="-108" y="1830" width="120" height="60" as="geometry" />
        </mxCell>
        <mxCell id="ulu9L9T5XsNM_D27yvi4-121" style="edgeStyle=orthogonalEdgeStyle;rounded=0;orthogonalLoop=1;jettySize=auto;html=1;entryX=0.5;entryY=0;entryDx=0;entryDy=0;entryPerimeter=0;" parent="1" source="ulu9L9T5XsNM_D27yvi4-111" target="ulu9L9T5XsNM_D27yvi4-117" edge="1">
          <mxGeometry relative="1" as="geometry" />
        </mxCell>
        <mxCell id="ulu9L9T5XsNM_D27yvi4-122" value="Interaction Databse" style="shape=cylinder3;whiteSpace=wrap;html=1;boundedLbl=1;backgroundOutline=1;size=15;" parent="1" vertex="1">
          <mxGeometry x="470" y="2100" width="60" height="80" as="geometry" />
        </mxCell>
        <mxCell id="ulu9L9T5XsNM_D27yvi4-123" style="edgeStyle=orthogonalEdgeStyle;rounded=0;orthogonalLoop=1;jettySize=auto;html=1;entryX=0;entryY=0;entryDx=0;entryDy=52.5;entryPerimeter=0;" parent="1" source="ulu9L9T5XsNM_D27yvi4-111" target="ulu9L9T5XsNM_D27yvi4-122" edge="1">
          <mxGeometry relative="1" as="geometry" />
        </mxCell>
        <mxCell id="ulu9L9T5XsNM_D27yvi4-124" style="edgeStyle=orthogonalEdgeStyle;rounded=0;orthogonalLoop=1;jettySize=auto;html=1;entryX=0.5;entryY=1;entryDx=0;entryDy=0;entryPerimeter=0;" parent="1" source="ulu9L9T5XsNM_D27yvi4-119" target="ulu9L9T5XsNM_D27yvi4-114" edge="1">
          <mxGeometry relative="1" as="geometry" />
        </mxCell>
        <mxCell id="ulu9L9T5XsNM_D27yvi4-125" style="edgeStyle=orthogonalEdgeStyle;rounded=0;orthogonalLoop=1;jettySize=auto;html=1;entryX=0.5;entryY=1;entryDx=0;entryDy=0;entryPerimeter=0;" parent="1" source="ulu9L9T5XsNM_D27yvi4-174" target="ulu9L9T5XsNM_D27yvi4-117" edge="1">
          <mxGeometry relative="1" as="geometry" />
        </mxCell>
        <mxCell id="ulu9L9T5XsNM_D27yvi4-126" value="Media Upload Service" style="shape=process;whiteSpace=wrap;html=1;backgroundOutline=1;" parent="1" vertex="1">
          <mxGeometry x="450" y="1870" width="120" height="60" as="geometry" />
        </mxCell>
        <mxCell id="ulu9L9T5XsNM_D27yvi4-130" style="edgeStyle=orthogonalEdgeStyle;rounded=0;orthogonalLoop=1;jettySize=auto;html=1;entryX=1;entryY=0.5;entryDx=0;entryDy=0;entryPerimeter=0;" parent="1" source="ulu9L9T5XsNM_D27yvi4-126" target="ulu9L9T5XsNM_D27yvi4-114" edge="1">
          <mxGeometry relative="1" as="geometry" />
        </mxCell>
        <mxCell id="ulu9L9T5XsNM_D27yvi4-133" style="edgeStyle=orthogonalEdgeStyle;rounded=0;orthogonalLoop=1;jettySize=auto;html=1;entryX=1;entryY=0.5;entryDx=0;entryDy=0;" parent="1" source="ulu9L9T5XsNM_D27yvi4-131" target="ulu9L9T5XsNM_D27yvi4-111" edge="1">
          <mxGeometry relative="1" as="geometry" />
        </mxCell>
        <mxCell id="ulu9L9T5XsNM_D27yvi4-131" value="Fanout Service" style="shape=process;whiteSpace=wrap;html=1;backgroundOutline=1;" parent="1" vertex="1">
          <mxGeometry x="60" y="2000" width="120" height="60" as="geometry" />
        </mxCell>
        <mxCell id="ulu9L9T5XsNM_D27yvi4-134" style="edgeStyle=orthogonalEdgeStyle;rounded=0;orthogonalLoop=1;jettySize=auto;html=1;entryX=0.387;entryY=0.027;entryDx=0;entryDy=0;entryPerimeter=0;" parent="1" source="ulu9L9T5XsNM_D27yvi4-119" target="ulu9L9T5XsNM_D27yvi4-131" edge="1">
          <mxGeometry relative="1" as="geometry" />
        </mxCell>
        <mxCell id="ulu9L9T5XsNM_D27yvi4-137" style="edgeStyle=orthogonalEdgeStyle;rounded=0;orthogonalLoop=1;jettySize=auto;html=1;entryX=1;entryY=0.75;entryDx=0;entryDy=0;" parent="1" source="ulu9L9T5XsNM_D27yvi4-135" target="ulu9L9T5XsNM_D27yvi4-111" edge="1">
          <mxGeometry relative="1" as="geometry">
            <mxPoint x="50" y="1890" as="targetPoint" />
          </mxGeometry>
        </mxCell>
        <mxCell id="ulu9L9T5XsNM_D27yvi4-135" value="Interaction Service" style="shape=process;whiteSpace=wrap;html=1;backgroundOutline=1;" parent="1" vertex="1">
          <mxGeometry x="-108" y="2070" width="120" height="60" as="geometry" />
        </mxCell>
        <mxCell id="ulu9L9T5XsNM_D27yvi4-138" style="edgeStyle=orthogonalEdgeStyle;rounded=0;orthogonalLoop=1;jettySize=auto;html=1;entryX=0;entryY=0.5;entryDx=0;entryDy=0;entryPerimeter=0;" parent="1" source="ulu9L9T5XsNM_D27yvi4-135" target="ulu9L9T5XsNM_D27yvi4-122" edge="1">
          <mxGeometry relative="1" as="geometry" />
        </mxCell>
        <mxCell id="ulu9L9T5XsNM_D27yvi4-141" value="Search User" style="shape=process;whiteSpace=wrap;html=1;backgroundOutline=1;" parent="1" vertex="1">
          <mxGeometry x="-108" y="2190" width="120" height="60" as="geometry" />
        </mxCell>
        <mxCell id="ulu9L9T5XsNM_D27yvi4-143" style="edgeStyle=orthogonalEdgeStyle;rounded=0;orthogonalLoop=1;jettySize=auto;html=1;entryX=1;entryY=0.5;entryDx=0;entryDy=0;entryPerimeter=0;" parent="1" source="ulu9L9T5XsNM_D27yvi4-141" target="ulu9L9T5XsNM_D27yvi4-113" edge="1">
          <mxGeometry relative="1" as="geometry">
            <Array as="points">
              <mxPoint x="790" y="2220" />
              <mxPoint x="790" y="1620" />
            </Array>
          </mxGeometry>
        </mxCell>
        <mxCell id="ulu9L9T5XsNM_D27yvi4-144" value="User data" style="shape=cylinder3;whiteSpace=wrap;html=1;boundedLbl=1;backgroundOutline=1;size=15;" parent="1" vertex="1">
          <mxGeometry x="850" y="2120" width="60" height="80" as="geometry" />
        </mxCell>
        <mxCell id="ulu9L9T5XsNM_D27yvi4-146" style="edgeStyle=orthogonalEdgeStyle;rounded=0;orthogonalLoop=1;jettySize=auto;html=1;entryX=0.5;entryY=1;entryDx=0;entryDy=0;entryPerimeter=0;" parent="1" source="ulu9L9T5XsNM_D27yvi4-141" target="ulu9L9T5XsNM_D27yvi4-144" edge="1">
          <mxGeometry relative="1" as="geometry" />
        </mxCell>
        <mxCell id="ulu9L9T5XsNM_D27yvi4-148" style="edgeStyle=orthogonalEdgeStyle;rounded=0;orthogonalLoop=1;jettySize=auto;html=1;entryX=0.5;entryY=1;entryDx=0;entryDy=0;" parent="1" source="ulu9L9T5XsNM_D27yvi4-147" target="ulu9L9T5XsNM_D27yvi4-141" edge="1">
          <mxGeometry relative="1" as="geometry" />
        </mxCell>
        <mxCell id="ulu9L9T5XsNM_D27yvi4-147" value="Follow&amp;nbsp; Users" style="shape=process;whiteSpace=wrap;html=1;backgroundOutline=1;" parent="1" vertex="1">
          <mxGeometry x="-108" y="2320" width="120" height="60" as="geometry" />
        </mxCell>
        <mxCell id="ulu9L9T5XsNM_D27yvi4-151" value="Get Feed Service" style="shape=process;whiteSpace=wrap;html=1;backgroundOutline=1;" parent="1" vertex="1">
          <mxGeometry x="-98" y="1720" width="120" height="60" as="geometry" />
        </mxCell>
        <mxCell id="ulu9L9T5XsNM_D27yvi4-152" value="Create Post" style="shape=process;whiteSpace=wrap;html=1;backgroundOutline=1;" parent="1" vertex="1">
          <mxGeometry x="-98" y="1840" width="120" height="60" as="geometry" />
        </mxCell>
        <mxCell id="ulu9L9T5XsNM_D27yvi4-155" value="Interaction Service" style="shape=process;whiteSpace=wrap;html=1;backgroundOutline=1;" parent="1" vertex="1">
          <mxGeometry x="-98" y="2080" width="120" height="60" as="geometry" />
        </mxCell>
        <mxCell id="ulu9L9T5XsNM_D27yvi4-158" value="Search User" style="shape=process;whiteSpace=wrap;html=1;backgroundOutline=1;" parent="1" vertex="1">
          <mxGeometry x="-98" y="2200" width="120" height="60" as="geometry" />
        </mxCell>
        <mxCell id="ulu9L9T5XsNM_D27yvi4-159" value="Follow&amp;nbsp; Users" style="shape=process;whiteSpace=wrap;html=1;backgroundOutline=1;" parent="1" vertex="1">
          <mxGeometry x="-98" y="2330" width="120" height="60" as="geometry" />
        </mxCell>
        <mxCell id="ulu9L9T5XsNM_D27yvi4-160" value="Fanout Service" style="shape=process;whiteSpace=wrap;html=1;backgroundOutline=1;" parent="1" vertex="1">
          <mxGeometry x="70" y="2010" width="120" height="60" as="geometry" />
        </mxCell>
        <mxCell id="ulu9L9T5XsNM_D27yvi4-161" value="Media Upload Service" style="shape=process;whiteSpace=wrap;html=1;backgroundOutline=1;" parent="1" vertex="1">
          <mxGeometry x="460" y="1880" width="120" height="60" as="geometry" />
        </mxCell>
        <mxCell id="ulu9L9T5XsNM_D27yvi4-162" value="Post Database" style="shape=cylinder3;whiteSpace=wrap;html=1;boundedLbl=1;backgroundOutline=1;size=15;" parent="1" vertex="1">
          <mxGeometry x="340" y="1810" width="60" height="80" as="geometry" />
        </mxCell>
        <mxCell id="ulu9L9T5XsNM_D27yvi4-163" value="Connnection DB" style="shape=cylinder3;whiteSpace=wrap;html=1;boundedLbl=1;backgroundOutline=1;size=15;" parent="1" vertex="1">
          <mxGeometry x="480" y="1590" width="60" height="80" as="geometry" />
        </mxCell>
        <mxCell id="ulu9L9T5XsNM_D27yvi4-164" value="Object Database" style="shape=cylinder3;whiteSpace=wrap;html=1;boundedLbl=1;backgroundOutline=1;size=15;" parent="1" vertex="1">
          <mxGeometry x="610" y="1810" width="60" height="80" as="geometry" />
        </mxCell>
        <mxCell id="ulu9L9T5XsNM_D27yvi4-165" value="Interaction Databse" style="shape=cylinder3;whiteSpace=wrap;html=1;boundedLbl=1;backgroundOutline=1;size=15;" parent="1" vertex="1">
          <mxGeometry x="480" y="2110" width="60" height="80" as="geometry" />
        </mxCell>
        <mxCell id="ulu9L9T5XsNM_D27yvi4-166" value="User data" style="shape=cylinder3;whiteSpace=wrap;html=1;boundedLbl=1;backgroundOutline=1;size=15;" parent="1" vertex="1">
          <mxGeometry x="860" y="2130" width="60" height="80" as="geometry" />
        </mxCell>
        <mxCell id="ulu9L9T5XsNM_D27yvi4-168" value="" style="edgeStyle=orthogonalEdgeStyle;rounded=0;orthogonalLoop=1;jettySize=auto;html=1;entryX=0;entryY=0.75;entryDx=0;entryDy=0;" parent="1" source="ulu9L9T5XsNM_D27yvi4-110" target="ulu9L9T5XsNM_D27yvi4-167" edge="1">
          <mxGeometry relative="1" as="geometry">
            <mxPoint x="-360" y="2010" as="sourcePoint" />
            <mxPoint x="-108" y="1755" as="targetPoint" />
          </mxGeometry>
        </mxCell>
        <mxCell id="ulu9L9T5XsNM_D27yvi4-167" value="Load Balancer" style="rounded=1;whiteSpace=wrap;html=1;direction=south;" parent="1" vertex="1">
          <mxGeometry x="-260" y="1800" width="60" height="120" as="geometry" />
        </mxCell>
        <mxCell id="ulu9L9T5XsNM_D27yvi4-170" value="" style="edgeStyle=orthogonalEdgeStyle;rounded=0;orthogonalLoop=1;jettySize=auto;html=1;entryX=0;entryY=0.25;entryDx=0;entryDy=0;" parent="1" source="ulu9L9T5XsNM_D27yvi4-110" target="ulu9L9T5XsNM_D27yvi4-169" edge="1">
          <mxGeometry relative="1" as="geometry">
            <mxPoint x="-360" y="2010" as="sourcePoint" />
            <mxPoint x="-108" y="2335" as="targetPoint" />
          </mxGeometry>
        </mxCell>
        <mxCell id="ulu9L9T5XsNM_D27yvi4-171" value="" style="edgeStyle=orthogonalEdgeStyle;rounded=0;orthogonalLoop=1;jettySize=auto;html=1;entryX=0;entryY=0.75;entryDx=0;entryDy=0;" parent="1" source="ulu9L9T5XsNM_D27yvi4-110" target="ulu9L9T5XsNM_D27yvi4-169" edge="1">
          <mxGeometry relative="1" as="geometry">
            <mxPoint x="-360" y="2010" as="sourcePoint" />
            <mxPoint x="-108" y="2235" as="targetPoint" />
          </mxGeometry>
        </mxCell>
        <mxCell id="ulu9L9T5XsNM_D27yvi4-169" value="Load Balancer" style="rounded=1;whiteSpace=wrap;html=1;direction=south;" parent="1" vertex="1">
          <mxGeometry x="-260" y="2030" width="60" height="120" as="geometry" />
        </mxCell>
        <mxCell id="ulu9L9T5XsNM_D27yvi4-173" value="" style="edgeStyle=orthogonalEdgeStyle;rounded=0;orthogonalLoop=1;jettySize=auto;html=1;entryX=0;entryY=0.75;entryDx=0;entryDy=0;" parent="1" source="ulu9L9T5XsNM_D27yvi4-167" target="ulu9L9T5XsNM_D27yvi4-172" edge="1">
          <mxGeometry relative="1" as="geometry">
            <mxPoint x="-200" y="1860" as="sourcePoint" />
            <mxPoint x="-108" y="1755" as="targetPoint" />
          </mxGeometry>
        </mxCell>
        <mxCell id="ulu9L9T5XsNM_D27yvi4-172" value="cache" style="shape=dataStorage;whiteSpace=wrap;html=1;fixedSize=1;direction=south;" parent="1" vertex="1">
          <mxGeometry x="-170" y="1760" width="40" height="90" as="geometry" />
        </mxCell>
        <mxCell id="ulu9L9T5XsNM_D27yvi4-175" value="" style="edgeStyle=orthogonalEdgeStyle;rounded=0;orthogonalLoop=1;jettySize=auto;html=1;entryX=0.5;entryY=1;entryDx=0;entryDy=0;entryPerimeter=0;" parent="1" source="ulu9L9T5XsNM_D27yvi4-119" target="ulu9L9T5XsNM_D27yvi4-174" edge="1">
          <mxGeometry relative="1" as="geometry">
            <mxPoint x="12" y="1860" as="sourcePoint" />
            <mxPoint x="630" y="1880" as="targetPoint" />
          </mxGeometry>
        </mxCell>
        <mxCell id="ulu9L9T5XsNM_D27yvi4-174" value="Message Queue" style="shape=step;perimeter=stepPerimeter;whiteSpace=wrap;html=1;fixedSize=1;" parent="1" vertex="1">
          <mxGeometry x="270" y="1885" width="70" height="30" as="geometry" />
        </mxCell>
        <mxCell id="ulu9L9T5XsNM_D27yvi4-176" value="Archived Storage" style="shape=cylinder3;whiteSpace=wrap;html=1;boundedLbl=1;backgroundOutline=1;size=15;" parent="1" vertex="1">
          <mxGeometry x="360" y="1540" width="60" height="80" as="geometry" />
        </mxCell>
        <mxCell id="ulu9L9T5XsNM_D27yvi4-177" value="Archived Storage" style="shape=cylinder3;whiteSpace=wrap;html=1;boundedLbl=1;backgroundOutline=1;size=15;" parent="1" vertex="1">
          <mxGeometry x="860" y="1810" width="60" height="80" as="geometry" />
        </mxCell>
        <mxCell id="ulu9L9T5XsNM_D27yvi4-178" value="Archived Storage" style="shape=cylinder3;whiteSpace=wrap;html=1;boundedLbl=1;backgroundOutline=1;size=15;" parent="1" vertex="1">
          <mxGeometry x="370" y="1550" width="60" height="80" as="geometry" />
        </mxCell>
        <mxCell id="ulu9L9T5XsNM_D27yvi4-179" value="Archived Storage" style="shape=cylinder3;whiteSpace=wrap;html=1;boundedLbl=1;backgroundOutline=1;size=15;" parent="1" vertex="1">
          <mxGeometry x="870" y="1820" width="60" height="80" as="geometry" />
        </mxCell>
        <mxCell id="ulu9L9T5XsNM_D27yvi4-180" style="edgeStyle=orthogonalEdgeStyle;rounded=0;orthogonalLoop=1;jettySize=auto;html=1;entryX=0.5;entryY=1;entryDx=0;entryDy=0;entryPerimeter=0;" parent="1" source="ulu9L9T5XsNM_D27yvi4-162" target="ulu9L9T5XsNM_D27yvi4-178" edge="1">
          <mxGeometry relative="1" as="geometry" />
        </mxCell>
        <mxCell id="ulu9L9T5XsNM_D27yvi4-181" style="edgeStyle=orthogonalEdgeStyle;rounded=0;orthogonalLoop=1;jettySize=auto;html=1;entryX=0;entryY=0;entryDx=0;entryDy=52.5;entryPerimeter=0;" parent="1" source="ulu9L9T5XsNM_D27yvi4-164" target="ulu9L9T5XsNM_D27yvi4-177" edge="1">
          <mxGeometry relative="1" as="geometry" />
        </mxCell>
        <mxCell id="ulu9L9T5XsNM_D27yvi4-184" value="CDN&amp;nbsp;" style="ellipse;shape=cloud;whiteSpace=wrap;html=1;" parent="1" vertex="1">
          <mxGeometry x="76" y="2120" width="120" height="80" as="geometry" />
        </mxCell>
        <mxCell id="ulu9L9T5XsNM_D27yvi4-185" style="edgeStyle=orthogonalEdgeStyle;rounded=0;orthogonalLoop=1;jettySize=auto;html=1;entryX=0.4;entryY=0.1;entryDx=0;entryDy=0;entryPerimeter=0;" parent="1" source="ulu9L9T5XsNM_D27yvi4-160" target="ulu9L9T5XsNM_D27yvi4-184" edge="1">
          <mxGeometry relative="1" as="geometry" />
        </mxCell>
      </root>
    </mxGraphModel>
  </diagram>
</mxfile>
